HIERARCHY
ROOT hip
{
  OFFSET 3.11584 82.8661 71.8254
  CHANNELS 6 Xposition Yposition Zposition Zrotation Xrotation Yrotation
  JOINT abdomen
  {
    OFFSET 0 20.6881 -0.73152
    CHANNELS 3 Zrotation Xrotation Yrotation
    JOINT chest
    {
      OFFSET 0 11.7043 -0.48768
      CHANNELS 3 Zrotation Xrotation Yrotation
      JOINT neck
      {
        OFFSET 0 22.1894 -2.19456
        CHANNELS 3 Zrotation Xrotation Yrotation
        JOINT head
        {
          OFFSET -0.24384 7.07133 1.2192
          CHANNELS 3 Zrotation Xrotation Yrotation
          JOINT leftEye
          {
            OFFSET 4.14528 8.04674 8.04672
            CHANNELS 3 Zrotation Xrotation Yrotation
            End Site
            {
              OFFSET 1 0 0
            }
          }
          JOINT rightEye
          {
            OFFSET -3.6576 8.04674 8.04672
            CHANNELS 3 Zrotation Xrotation Yrotation
            End Site
            {
              OFFSET 1 0 0
            }
          }
        }
      }
      JOINT rCollar
      {
        OFFSET -2.68224 19.2634 -4.8768
        CHANNELS 3 Zrotation Xrotation Yrotation
        JOINT rShldr
        {
          OFFSET -8.77824 -1.95073 1.46304
          CHANNELS 3 Zrotation Xrotation Yrotation
          JOINT rForeArm
          {
            OFFSET -28.1742 -1.7115 0.48768
            CHANNELS 3 Zrotation Xrotation Yrotation
            JOINT rHand
            {
              OFFSET -22.5879 0.773209 7.07136
              CHANNELS 3 Zrotation Xrotation Yrotation
              JOINT rThumb1
              {
                OFFSET -1.2192 -0.487915 3.41376
                CHANNELS 3 Zrotation Xrotation Yrotation
                JOINT rThumb2
                {
                  OFFSET -3.37035 -0.52449 3.41376
                  CHANNELS 3 Zrotation Xrotation Yrotation
                  End Site
                  {
                    OFFSET -1.78271 -1.18214 1.43049
                  }
                }
              }
              JOINT rIndex1
              {
                OFFSET -7.75947 0.938293 5.60832
                CHANNELS 3 Zrotation Xrotation Yrotation
                JOINT rIndex2
                {
                  OFFSET -2.54057 -0.884171 1.56538
                  CHANNELS 3 Zrotation Xrotation Yrotation
                  End Site
                  {
                    OFFSET -1.62519 -0.234802 1.16502
                  }
                }
              }
              JOINT rMid1
              {
                OFFSET -8.24714 1.18213 3.41376
                CHANNELS 3 Zrotation Xrotation Yrotation
                JOINT rMid2
                {
                  OFFSET -3.10165 -0.590103 1.0647
                  CHANNELS 3 Zrotation Xrotation Yrotation
                  End Site
                  {
                    OFFSET -2.48547 -0.328903 0.83742
                  }
                }
              }
              JOINT rRing1
              {
                OFFSET -8.82822 0.546677 1.51678
                CHANNELS 3 Zrotation Xrotation Yrotation
                JOINT rRing2
                {
                  OFFSET -2.60934 -0.819778 -0.0198488
                  CHANNELS 3 Zrotation Xrotation Yrotation
                  End Site
                  {
                    OFFSET -2.33842 -0.294052 0.168128
                  }
                }
              }
              JOINT rPinky1
              {
                OFFSET -8.27202 -0.0477905 -0.4584
                CHANNELS 3 Zrotation Xrotation Yrotation
                JOINT rPinky2
                {
                  OFFSET -1.82734 -0.647385 -0.700984
                  CHANNELS 3 Zrotation Xrotation Yrotation
                  End Site
                  {
                    OFFSET -1.69225 -0.51767 -0.607171
                  }
                }
              }
            }
          }
        }
      }
      JOINT lCollar
      {
        OFFSET 2.68224 19.2634 -4.8768
        CHANNELS 3 Zrotation Xrotation Yrotation
        JOINT lShldr
        {
          OFFSET 8.77824 -1.95073 1.46304
          CHANNELS 3 Zrotation Xrotation Yrotation
          JOINT lForeArm
          {
            OFFSET 28.1742 -1.7115 0.48768
            CHANNELS 3 Zrotation Xrotation Yrotation
            JOINT lHand
            {
              OFFSET 22.5879 0.773209 7.07136
              CHANNELS 3 Zrotation Xrotation Yrotation
              JOINT lThumb1
              {
                OFFSET 1.2192 -0.487915 3.41376
                CHANNELS 3 Zrotation Xrotation Yrotation
                JOINT lThumb2
                {
                  OFFSET 3.37035 -0.52449 3.41376
                  CHANNELS 3 Zrotation Xrotation Yrotation
                  End Site
                  {
                    OFFSET 1.78271 -1.18214 1.43049
                  }
                }
              }
              JOINT lIndex1
              {
                OFFSET 7.75947 0.938293 5.60832
                CHANNELS 3 Zrotation Xrotation Yrotation
                JOINT lIndex2
                {
                  OFFSET 2.54057 -0.884171 1.56538
                  CHANNELS 3 Zrotation Xrotation Yrotation
                  End Site
                  {
                    OFFSET 1.62519 -0.234802 1.16502
                  }
                }
              }
              JOINT lMid1
              {
                OFFSET 8.24714 1.18213 3.41376
                CHANNELS 3 Zrotation Xrotation Yrotation
                JOINT lMid2
                {
                  OFFSET 3.10165 -0.590103 1.0647
                  CHANNELS 3 Zrotation Xrotation Yrotation
                  End Site
                  {
                    OFFSET 2.48547 -0.328903 0.83742
                  }
                }
              }
              JOINT lRing1
              {
                OFFSET 8.82822 0.546677 1.51678
                CHANNELS 3 Zrotation Xrotation Yrotation
                JOINT lRing2
                {
                  OFFSET 2.60934 -0.819778 -0.0198488
                  CHANNELS 3 Zrotation Xrotation Yrotation
                  End Site
                  {
                    OFFSET 2.33842 -0.294052 0.168128
                  }
                }
              }
              JOINT lPinky1
              {
                OFFSET 8.27202 -0.0477905 -0.4584
                CHANNELS 3 Zrotation Xrotation Yrotation
                JOINT lPinky2
                {
                  OFFSET 1.82734 -0.647385 -0.700984
                  CHANNELS 3 Zrotation Xrotation Yrotation
                  End Site
                  {
                    OFFSET 1.69225 -0.51767 -0.607171
                  }
                }
              }
            }
          }
        }
      }
    }
  }
  JOINT rButtock
  {
    OFFSET -8.77824 4.35084 1.2192
    CHANNELS 3 Zrotation Xrotation Yrotation
    JOINT rThigh
    {
      OFFSET 0 -1.70687 -2.19456
      CHANNELS 3 Zrotation Xrotation Yrotation
      JOINT rShin
      {
        OFFSET 0 -36.8199 0.73152
        CHANNELS 3 Zrotation Xrotation Yrotation
        JOINT rFoot
        {
          OFFSET 0.73152 -45.1104 -5.12064
          CHANNELS 3 Zrotation Xrotation Yrotation
          End Site
          {
            OFFSET -1.1221 -3.69964 12.103
          }
        }
      }
    }
  }
  JOINT lButtock
  {
    OFFSET 8.77824 4.35084 1.2192
    CHANNELS 3 Zrotation Xrotation Yrotation
    JOINT lThigh
    {
      OFFSET 0 -1.70687 -2.19456
      CHANNELS 3 Zrotation Xrotation Yrotation
      JOINT lShin
      {
        OFFSET 0 -36.8199 0.73152
        CHANNELS 3 Zrotation Xrotation Yrotation
        JOINT lFoot
        {
          OFFSET -0.73152 -45.1104 -5.12064
          CHANNELS 3 Zrotation Xrotation Yrotation
          End Site
          {
            OFFSET 1.1221 -3.69964 12.103
          }
        }
      }
    }
  }
}
MOTION
Frames:	8
Frame Time:	0.00833333
0.420292 82.2556 207.372 3.63082 0.0198467 -0.0700108 -4.77303 0.00925683 -0.128166 -1.31325 0.0404283 -0.226877 4.60476e-015 7.95139e-016 -5.46658e-016 1.45486e-014 3.18055e-015 -1.69278e-015 -0 0 0 -0 0 0 2.68419e-015 3.20696e-016 -9.93923e-017 5.71253e-014 6.52883e-015 -5.1684e-015 9.69622e-013 -5.30755e-014 -1.20861e-013 1.07419e-011 1.43237e-012 -1.08139e-012 2.54035e-011 2.99045e-012 -2.57943e-012 4.38583e-011 5.1684e-012 -4.47663e-012 2.54083e-011 2.9933e-012 -2.59533e-012 7.73091 5.47488 0.417314 2.54034e-011 2.99072e-012 -2.58897e-012 2.90554 0.965183 0.102902 2.54176e-011 2.99101e-012 -2.58659e-012 10.2786 0.731801 0.0259123 2.54043e-011 2.98932e-012 -2.58261e-012 2.22167 -0.733487 -0.20892 2.38496e-015 3.2419e-016 -5.96354e-016 5.50203e-014 6.41081e-015 -6.36111e-015 9.15056e-013 5.0213e-013 -1.17681e-013 1.08072e-011 8.6521e-013 -1.04958e-012 2.54339e-011 2.96541e-012 -2.56353e-012 4.39386e-011 5.12069e-012 -4.42097e-012 2.54285e-011 2.96507e-012 -2.5508e-012 -7.73091 5.47488 -0.417314 2.54352e-011 2.96537e-012 -2.56671e-012 -2.90554 0.965183 -0.102902 2.54256e-011 2.96537e-012 -2.56432e-012 -10.2786 0.731801 -0.0259123 2.54387e-011 2.96706e-012 -2.57307e-012 -2.22167 -0.733487 0.20892 -2.03217e-016 0 -3.88251e-019 -3.15654 -1.94856 0.0347016 -0.00820977 -2.07871 -0.0671895 -0.47072 4.00263 0.134292 2.03217e-016 0 3.88251e-019 -4.06338 -11.8418 0.547652 -0.0161013 15.8338 -0.442587 0.592956 -4.01611 0.0187097 
-0.152542 81.2211 197.202 1.66888 1.67046 45.4388 -5.46249 -2.51484 -1.52068 -0.348194 2.0971 -0.602361 -1.34256 4.80736 -0.880179 4.27726 -13.7504 -0.416083 -0 0 0 -0 0 0 -5.68291e-016 2.82127e-014 1.94893e-013 23.0884 -2.03698 -0.746288 -2.98333 -1.17747 4.8352 0.228567 10.64 1.40394 -3.90331e-010 4.37365e-010 -6.93078e-010 -6.91537e-010 7.51755e-010 -1.18268e-009 -3.90324e-010 4.37365e-010 -6.93089e-010 7.73091 5.47488 0.417314 -3.90329e-010 4.37364e-010 -6.93083e-010 2.90554 0.965183 0.102902 -3.90318e-010 4.37365e-010 -6.93082e-010 10.2786 0.731801 0.0259123 -3.90333e-010 4.37365e-010 -6.93078e-010 2.22167 -0.733487 -0.20892 -7.72392e-016 2.82139e-014 1.94463e-013 -22.566 1.74176 0.415038 2.47218 -0.911567 -4.0617 -0.235861 10.8118 -1.42371 -1.00501e-009 -4.0648e-010 -3.53413e-010 -1.74042e-009 -6.87706e-010 -5.78479e-010 -1.00501e-009 -4.0648e-010 -3.534e-010 -7.73091 5.47488 -0.417314 -1.005e-009 -4.06478e-010 -3.53412e-010 -2.90554 0.965183 -0.102902 -1.00502e-009 -4.06479e-010 -3.53411e-010 -10.2786 0.731801 -0.0259123 -1.005e-009 -4.06476e-010 -3.53419e-010 -2.22167 -0.733487 0.20892 -2.03217e-016 0 -3.88251e-019 -3.99609 -9.84544 -1.78293 0.0285997 3.59096 0.182864 -0.420047 2.42206 1.14416 2.03217e-016 0 3.88251e-019 -4.21041 -11.0818 -1.73761 -0.0414474 17.0667 -0.635289 0.566492 -5.88369 -0.936527 
-0.186217 81.2233 197.244 -1.78718 -0.296964 93.4848 -6.32015 -5.17915 -2.99978 0.70511 4.27384 -1.00101 -2.59951 9.88011 -1.83151 8.54985 -28.2834 -0.946297 -0 0 0 -0 0 0 -4.03358e-015 5.46089e-014 4.16727e-013 47.4331 -4.19761 -1.53622 -5.91926 -2.39277 9.94898 -0.136681 21.8751 3.05992 -8.96541e-010 9.34434e-010 -1.44687e-009 -1.58456e-009 1.60541e-009 -2.46731e-009 -8.96531e-010 9.34431e-010 -1.44687e-009 7.73091 5.47488 0.417314 -8.96538e-010 9.34431e-010 -1.44687e-009 2.90554 0.965183 0.102902 -8.9653e-010 9.34433e-010 -1.44687e-009 10.2786 0.731801 0.0259123 -8.96546e-010 9.34434e-010 -1.44686e-009 2.22167 -0.733487 -0.20892 -4.13859e-015 5.46076e-014 4.16367e-013 -46.4585 3.62023 0.880829 4.97257 -1.8731 -8.40466 0.141157 22.1906 -3.10392 -2.12274e-009 -8.6208e-010 -7.79618e-010 -3.67732e-009 -1.45898e-009 -1.27989e-009 -2.12275e-009 -8.62079e-010 -7.79603e-010 -7.73091 5.47488 -0.417314 -2.12274e-009 -8.62075e-010 -7.79612e-010 -2.90554 0.965183 -0.102902 -2.12275e-009 -8.62077e-010 -7.79612e-010 -10.2786 0.731801 -0.0259123 -2.12274e-009 -8.62074e-010 -7.7962e-010 -2.22167 -0.733487 0.20892 -2.03217e-016 0 -3.88251e-019 -5.44941 -18.1611 -3.84315 0.0130415 9.57912 0.45264 -0.304514 0.730112 2.2151 2.03217e-016 0 3.88251e-019 -4.29256 -10.265 -4.14023 -0.058676 18.3712 -0.841982 0.46963 -7.84946 -1.96284 
-0.196535 81.2226 197.293 -2.07968 -5.13404 136.162 -7.21189 -7.54425 -4.33893 1.66325 6.20906 -1.3601 -3.57251 14.4083 -2.71676 12.0653 -41.241 -1.61255 -0 0 0 -0 0 0 -7.07326e-015 8.39968e-014 5.84877e-013 69.1053 -6.10678 -2.25022 -8.35996 -3.43194 14.5292 -1.11199 31.8362 4.87403 -1.2218e-009 1.30611e-009 -2.07407e-009 -2.16233e-009 2.24493e-009 -3.53908e-009 -1.22179e-009 1.30611e-009 -2.07407e-009 7.73091 5.47488 0.417314 -1.22179e-009 1.30611e-009 -2.07407e-009 2.90554 0.965183 0.102902 -1.22179e-009 1.30611e-009 -2.07407e-009 10.2786 0.731801 0.0259123 -1.22181e-009 1.30611e-009 -2.07407e-009 2.22167 -0.733487 -0.20892 -7.0871e-015 8.39933e-014 5.84581e-013 -67.7738 5.22419 1.24973 7.03169 -2.67979 -12.1971 1.15381 32.3475 -4.9677 -3.06589e-009 -1.22537e-009 -1.05511e-009 -5.30915e-009 -2.07336e-009 -1.7266e-009 -3.06589e-009 -1.22537e-009 -1.0551e-009 -7.73091 5.47488 -0.417314 -3.06588e-009 -1.22536e-009 -1.0551e-009 -2.90554 0.965183 -0.102902 -3.0659e-009 -1.22537e-009 -1.0551e-009 -10.2786 0.731801 -0.0259123 -3.06589e-009 -1.22536e-009 -1.05511e-009 -2.22167 -0.733487 0.20892 -2.03217e-016 0 -3.88251e-019 -7.31682 -25.5339 -5.91926 -0.0500919 14.9293 0.705625 -0.151687 -0.736526 3.16175 2.03217e-016 0 3.88251e-019 -4.31914 -9.51928 -6.27432 -0.065723 19.5318 -1.0296 0.324332 -9.60932 -2.87244 
-0.1688 81.2207 197.333 0.617544 -8.40906 166.119 -7.92716 -9.17888 -5.29675 2.3258 7.54173 -1.61405 -4.16021 17.588 -3.36476 14.2637 -50.2691 -2.29492 -0 0 0 -0 0 0 -9.04891e-015 1.20864e-013 6.18817e-013 84.2097 -7.39121 -2.76345 -9.97424 -4.12576 17.7531 -2.27115 38.6912 6.46285 -1.09468e-009 1.36432e-009 -2.38482e-009 -1.95199e-009 2.3491e-009 -4.07871e-009 -1.09467e-009 1.36432e-009 -2.38482e-009 7.73091 5.47488 0.417314 -1.09467e-009 1.36432e-009 -2.38481e-009 2.90554 0.965183 0.102902 -1.09467e-009 1.36432e-009 -2.38482e-009 10.2786 0.731801 0.0259123 -1.09469e-009 1.36432e-009 -2.38481e-009 2.22167 -0.733487 -0.20892 -8.99136e-015 1.20859e-013 6.18568e-013 -82.583 6.14327 1.37098 8.27317 -3.15618 -14.6007 2.39541 39.5295 -6.65983 -3.57257e-009 -1.35789e-009 -9.53832e-010 -6.17834e-009 -2.29549e-009 -1.53654e-009 -3.57257e-009 -1.35789e-009 -9.53817e-010 -7.73091 5.47488 -0.417314 -3.57256e-009 -1.35788e-009 -9.5382e-010 -2.90554 0.965183 -0.102902 -3.57258e-009 -1.35788e-009 -9.53821e-010 -10.2786 0.731801 -0.0259123 -3.57256e-009 -1.35788e-009 -9.53829e-010 -2.22167 -0.733487 0.20892 -2.03217e-016 0 -3.88251e-019 -9.01616 -30.6479 -7.57297 -0.123675 18.6855 0.893514 -0.0282044 -1.64338 3.79656 2.03217e-016 0 3.88251e-019 -4.33635 -8.97787 -7.75967 -0.0661619 20.3332 -1.16293 0.193884 -10.863 -3.46907 
-0.147969 81.2179 197.352 2.35871 -9.27488 177.933 -8.28753 -9.80483 -5.70489 2.54574 8.03015 -1.71789 -4.36358 18.8991 -3.62598 15.1106 -53.8085 -2.60649 -0 0 0 -0 0 0 -1.00088e-014 1.74726e-013 4.2535e-013 90.1811 -7.79402 -2.98926 -10.6107 -4.40322 19.0683 -2.846 41.2574 7.16646 -1.46627e-010 8.74532e-010 -2.17881e-009 -3.13005e-010 1.51785e-009 -3.75191e-009 -1.46614e-010 8.74528e-010 -2.17881e-009 7.73091 5.47488 0.417314 -1.46622e-010 8.74529e-010 -2.17881e-009 2.90554 0.965183 0.102902 -1.4662e-010 8.74535e-010 -2.17881e-009 10.2786 0.731801 0.0259123 -1.46635e-010 8.74537e-010 -2.1788e-009 2.22167 -0.733487 -0.20892 -9.89974e-015 1.74718e-013 4.25129e-013 -88.2308 5.95588 1.12123 8.43646 -3.18131 -14.9536 3.11656 42.7391 -7.5575 -3.39889e-009 -1.09996e-009 -1.476e-010 -5.85509e-009 -1.85285e-009 -1.50854e-010 -3.39889e-009 -1.09996e-009 -1.47584e-010 -7.73091 5.47488 -0.417314 -3.39888e-009 -1.09996e-009 -1.47588e-010 -2.90554 0.965183 -0.102902 -3.3989e-009 -1.09996e-009 -1.47589e-010 -10.2786 0.731801 -0.0259123 -3.39888e-009 -1.09996e-009 -1.47597e-010 -2.22167 -0.733487 0.20892 -2.03217e-016 0 -3.88251e-019 -9.83408 -32.6734 -8.26076 -0.159629 20.2098 0.971468 -0.00401551 -1.73331 3.97471 2.03217e-016 0 3.88251e-019 -4.40423 -8.73032 -8.35183 -0.0659611 20.6355 -1.21687 0.146561 -11.4163 -3.60421 
-0.1284 81.2139 197.369 2.25837 -9.2193 176.606 -8.36573 -9.71385 -5.71367 2.44364 7.91585 -1.71324 -4.33102 18.8778 -3.5947 15.1778 -53.4312 -2.48656 -0 0 0 -0 0 0 -1.02207e-014 2.40416e-013 7.13327e-014 89.6401 -7.56839 -3.00759 -10.5896 -4.4027 19.0158 -2.74561 40.7846 7.03709 1.37887e-009 -1.48792e-012 -1.60721e-009 2.33096e-009 2.72957e-011 -2.81201e-009 1.37888e-009 -1.48714e-012 -1.6072e-009 7.73091 5.47488 0.417314 1.37887e-009 -1.48764e-012 -1.6072e-009 2.90554 0.965183 0.102902 1.37888e-009 -1.48098e-012 -1.6072e-009 10.2786 0.731801 0.0259123 1.37886e-009 -1.47898e-012 -1.60719e-009 2.22167 -0.733487 -0.20892 -1.00746e-014 2.40405e-013 7.11245e-014 -87.3482 4.98466 0.608749 7.84368 -2.89003 -13.8457 3.17132 43.1329 -7.65464 -2.74254e-009 -5.66356e-010 1.15372e-009 -4.68603e-009 -9.40882e-010 2.07438e-009 -2.74254e-009 -5.66356e-010 1.15373e-009 -7.73091 5.47488 -0.417314 -2.74253e-009 -5.66356e-010 1.15373e-009 -2.90554 0.965183 -0.102902 -2.74255e-009 -5.66359e-010 1.15373e-009 -10.2786 0.731801 -0.0259123 -2.74253e-009 -5.66356e-010 1.15372e-009 -2.22167 -0.733487 0.20892 -2.03217e-016 0 -3.88251e-019 -9.84352 -32.5176 -8.14186 -0.155367 20.1402 0.964929 -0.0586733 -1.24203 3.82708 2.03217e-016 0 3.88251e-019 -4.52204 -8.69399 -8.30764 -0.0673139 20.5811 -1.21331 0.172359 -11.4704 -3.40688 
-0.127026 81.2113 197.404 1.40694 -8.7889 170.029 -8.31433 -9.33349 -5.55292 2.21745 7.56284 -1.66318 -4.20312 18.3084 -3.44891 14.8966 -51.4833 -2.22116 -0 0 0 -0 0 0 -9.37505e-015 3.004e-013 -2.83688e-013 86.4768 -7.10704 -2.94094 -10.3032 -4.28944 18.4094 -2.38655 39.1102 6.58563 2.83519e-009 -8.57381e-010 -1.00729e-009 4.85643e-009 -1.42947e-009 -1.82116e-009 2.83519e-009 -8.57376e-010 -1.00729e-009 7.73091 5.47488 0.417314 2.83519e-009 -8.57378e-010 -1.00728e-009 2.90554 0.965183 0.102902 2.83519e-009 -8.5737e-010 -1.00729e-009 10.2786 0.731801 0.0259123 2.83518e-009 -8.57369e-010 -1.00728e-009 2.22167 -0.733487 -0.20892 -9.21031e-015 3.00388e-013 -2.83891e-013 -83.9185 3.93657 0.0268215 7.01446 -2.50787 -12.3127 2.89555 42.2091 -7.35639 -2.004e-009 -3.02532e-011 2.36913e-009 -3.37823e-009 -2.61746e-011 4.14874e-009 -2.00401e-009 -3.02548e-011 2.36914e-009 -7.73091 5.47488 -0.417314 -2.004e-009 -3.02579e-011 2.36913e-009 -2.90554 0.965183 -0.102902 -2.00402e-009 -3.02596e-011 2.36913e-009 -10.2786 0.731801 -0.0259123 -2.004e-009 -3.02584e-011 2.36912e-009 -2.22167 -0.733487 0.20892 -2.03217e-016 0 -3.88251e-019 -9.52622 -31.4943 -7.721 -0.134777 19.435 0.924746 -0.131874 -0.575842 3.57753 2.03217e-016 0 3.88251e-019 -4.65077 -8.74274 -7.99913 -0.0691909 20.3787 -1.18693 0.224599 -11.3197 -3.09395 
